<svg width="16" height="16" viewBox="0 0 16 16" fill="none" xmlns="http://www.w3.org/2000/svg">
<path d="M7.93061 6.09524V3.80952H5.55142V2.28571H7.93061V0H9.51673V2.28571H11.8959V3.80952H9.51673V6.09524H7.93061ZM4.75836 16C4.32218 16 3.94891 15.8509 3.63856 15.5528C3.32768 15.2541 3.17224 14.8952 3.17224 14.4762C3.17224 14.0571 3.32768 13.6983 3.63856 13.3996C3.94891 13.1015 4.32218 12.9524 4.75836 12.9524C5.19455 12.9524 5.56781 13.1015 5.87817 13.3996C6.18905 13.6983 6.34449 14.0571 6.34449 14.4762C6.34449 14.8952 6.18905 15.2541 5.87817 15.5528C5.56781 15.8509 5.19455 16 4.75836 16ZM12.689 16C12.2528 16 11.8795 15.8509 11.5692 15.5528C11.2583 15.2541 11.1028 14.8952 11.1028 14.4762C11.1028 14.0571 11.2583 13.6983 11.5692 13.3996C11.8795 13.1015 12.2528 12.9524 12.689 12.9524C13.1252 12.9524 13.4987 13.1015 13.8096 13.3996C14.1199 13.6983 14.2751 14.0571 14.2751 14.4762C14.2751 14.8952 14.1199 15.2541 13.8096 15.5528C13.4987 15.8509 13.1252 16 12.689 16ZM4.75836 12.1905C4.16357 12.1905 3.70756 11.9396 3.39033 11.4377C3.07311 10.9364 3.0665 10.4381 3.37051 9.94286L4.44114 8.07619L1.58612 2.28571H0V0.761905H2.59727L5.96778 7.61905H11.539L14.6121 2.28571L16 3.00952L12.9269 8.34286C12.7815 8.59683 12.5898 8.79365 12.3519 8.93333C12.114 9.07302 11.843 9.14286 11.539 9.14286H5.63073L4.75836 10.6667H14.2751V12.1905H4.75836Z" fill="#402101"/>
</svg>
